<svg id="Layer_1" data-name="Layer 1" xmlns="http://www.w3.org/2000/svg" viewBox="0 0 667.11 312.1"><defs><style>.cls-1{fill:#fff;}.cls-2{fill:#ec7a23;}.cls-3{fill:none;}</style></defs><title>Logo Life 4</title><path class="cls-1" d="M419,623.76a68.58,68.58,0,0,1-68.5-68.5V381.82a8.36,8.36,0,0,0-8.36-8.36H314.26a8.36,8.36,0,0,0-8.36,8.36V556.67c0,.37,0,.74,0,1.1A113.23,113.23,0,0,0,419,668.37a8.36,8.36,0,0,0,8.36-8.36V632.12A8.36,8.36,0,0,0,419,623.76Z" transform="translate(-305.89 -356.27)"/><path class="cls-1" d="M720,373.46c-61.26,0-111.82,49.62-113.06,110.79a8.39,8.39,0,0,0-.05.92V660a8.36,8.36,0,0,0,8.36,8.36h27.88a8.36,8.36,0,0,0,8.36-8.36V514.52l45,0h0a8.36,8.36,0,0,0,8.36-8.36V478.3a8.36,8.36,0,0,0-8.36-8.37l-43,0A68.36,68.36,0,0,1,720,418.07a8.36,8.36,0,0,0,8.36-8.36V381.82A8.36,8.36,0,0,0,720,373.46Z" transform="translate(-305.89 -356.27)"/><path class="cls-1" d="M551.79,623.76a33.06,33.06,0,0,1-33-33V466.46a8.36,8.36,0,0,0-8.36-8.36H482.53a8.36,8.36,0,0,0-8.36,8.36V590.74a77.72,77.72,0,0,0,77.63,77.63,8.36,8.36,0,0,0,8.36-8.36V632.12A8.36,8.36,0,0,0,551.79,623.76Z" transform="translate(-305.89 -356.27)"/><path class="cls-1" d="M964.64,545.15H936.75a8.36,8.36,0,0,0-8.36,8.36,70.24,70.24,0,1,1-70.24-70.24,71.3,71.3,0,0,1,39.17,12L828,552.73a8.36,8.36,0,0,0-1.11,11.78L844.66,586a8.37,8.37,0,0,0,5.66,3q.39,0,.78,0a8.37,8.37,0,0,0,5.34-1.92l88.74-73.52a22.18,22.18,0,0,0,3.32-30.95A114.86,114.86,0,1,0,973,553.52,8.36,8.36,0,0,0,964.64,545.15Z" transform="translate(-305.89 -356.27)"/><circle class="cls-2" cx="190.38" cy="49.79" r="32.6"/><path class="cls-2" d="M781.77,362.37c-5.34,0-8.22,3.47-8.22,9.23v2.79h11.69a.85.85,0,0,1,.93.93v4.24c0,.68-.34,1-.93,1H773.56v36.26c0,.59-.34.93-1,.93h-5a.85.85,0,0,1-.93-.93V371.69c0-10.17,6.18-15.42,14.23-15.42a48.38,48.38,0,0,1,5.08.26,1,1,0,0,1,.93,1.1v4.07a.83.83,0,0,1-.85.93A34.35,34.35,0,0,0,781.77,362.37Z" transform="translate(-305.89 -356.27)"/><path class="cls-2" d="M805.49,365.84a4.12,4.12,0,0,1-4.24-4.15,4.07,4.07,0,0,1,4.24-4.15,4,4,0,0,1,4.15,4.15A4.05,4.05,0,0,1,805.49,365.84ZM803,417.77c-.68,0-1-.34-1-.93V375a.94.94,0,0,1,1-1h5a.91.91,0,0,1,.93,1v41.85a.85.85,0,0,1-.93.93Z" transform="translate(-305.89 -356.27)"/><path class="cls-2" d="M846.58,373c10.76,0,18.38,6.61,18.38,18v9.4c0,12.79-7.88,18.3-18.89,18.3a47.8,47.8,0,0,1-16.35-3,1.06,1.06,0,0,1-.76-1.1v-56.5a.85.85,0,0,1,.93-.93h5c.68,0,1,.34,1,.93v17.54A23.66,23.66,0,0,1,846.58,373Zm11.35,27.36V391c0-8.13-4.32-11.78-11.94-11.78a17.75,17.75,0,0,0-10.08,3v28.63a29.45,29.45,0,0,0,10,1.61C853.45,412.52,857.93,409.22,857.93,400.41Z" transform="translate(-305.89 -356.27)"/><path class="cls-2" d="M884.37,417.77a.85.85,0,0,1-.93-.93V377.28a1,1,0,0,1,.68-1.1A34.5,34.5,0,0,1,898.6,373a63.54,63.54,0,0,1,8.73.68,1,1,0,0,1,.85,1.1V379c0,.68-.34,1-1,.85a55.76,55.76,0,0,0-7.62-.59,25.55,25.55,0,0,0-9.15,1.69v35.92c0,.59-.34.93-1,.93Z" transform="translate(-305.89 -356.27)"/><path class="cls-2" d="M938.26,373c10.42,0,16.86,5.5,16.86,16.43v25.41a1.09,1.09,0,0,1-.76,1.1A50.47,50.47,0,0,1,938,418.71c-9.49,0-18.21-3.81-18.21-13.89,0-9,7.37-13.47,18.21-13.47a61.62,61.62,0,0,1,10.17,1v-2.71c0-6.86-2.79-10.34-10.17-10.34a24,24,0,0,0-12,3.13.81.81,0,0,1-1.27-.26l-2.46-3.56c-.25-.51-.34-.85,0-1.19C926.23,374.74,931.73,373,938.26,373ZM938,412.52A37.34,37.34,0,0,0,948.17,411V398.29a59.52,59.52,0,0,0-10.17-1c-7.71,0-11.27,2.88-11.27,7.54C926.73,409.89,931.48,412.52,938,412.52Z" transform="translate(-305.89 -356.27)"/><rect class="cls-3" x="437.04" y="191.9" width="45.17" height="13.01"/></svg>