<svg id="svg" version="1.1" xmlns="http://www.w3.org/2000/svg" xmlns:xlink="http://www.w3.org/1999/xlink" width="400" height="88.33779074479293" viewBox="0, 0, 400,88.33779074479293"><g id="svgg"><path id="path0" d="M113.500 59.917 L 113.500 60.667 220.667 60.667 L 327.833 60.667 327.833 59.917 L 327.833 59.167 220.667 59.167 L 113.500 59.167 113.500 59.917 M207.417 63.991 C 206.144 64.512,206.409 65.575,207.766 65.389 C 208.289 65.317,208.607 65.365,208.906 65.561 C 209.908 66.218,211.796 65.531,211.339 64.677 C 211.077 64.187,210.884 64.127,210.284 64.344 C 209.810 64.515,209.642 64.494,209.041 64.188 C 208.305 63.812,207.957 63.770,207.417 63.991 M153.333 66.863 C 151.320 67.902,151.709 70.219,153.972 70.671 C 156.796 71.235,156.746 71.217,156.803 71.708 C 156.906 72.607,154.831 72.827,153.404 72.068 L 152.593 71.637 152.214 72.110 C 151.665 72.796,151.723 72.919,152.860 73.487 C 155.496 74.804,158.665 73.694,158.445 71.531 C 158.315 70.250,157.622 69.742,155.547 69.406 C 154.113 69.174,153.667 68.975,153.667 68.569 C 153.667 67.904,155.538 67.795,156.715 68.391 L 157.487 68.782 157.910 68.340 C 158.495 67.730,158.456 67.619,157.465 67.080 C 156.225 66.406,154.405 66.310,153.333 66.863 M164.313 66.966 C 160.912 68.742,162.108 73.764,165.980 73.966 C 170.077 74.180,171.610 68.858,168.000 66.958 C 166.791 66.322,165.540 66.325,164.313 66.966 M174.167 70.254 L 174.167 74.008 177.125 73.962 L 180.083 73.917 180.083 73.167 L 180.083 72.417 177.875 72.370 L 175.667 72.324 175.667 69.412 L 175.667 66.500 174.917 66.500 L 174.167 66.500 174.167 70.254 M183.833 69.090 C 183.833 72.806,184.466 73.838,186.829 73.971 C 189.518 74.123,190.333 72.967,190.333 69.005 L 190.333 66.500 189.599 66.500 L 188.864 66.500 188.807 69.014 L 188.750 71.528 188.206 72.014 C 187.470 72.671,186.696 72.671,185.961 72.014 L 185.417 71.528 185.363 69.014 L 185.309 66.500 184.571 66.500 L 183.833 66.500 183.833 69.090 M196.863 66.690 C 194.828 67.276,193.820 70.455,195.070 72.343 C 196.334 74.253,199.141 74.593,200.855 73.044 C 201.635 72.340,201.650 72.174,200.984 71.681 L 200.468 71.299 199.891 71.858 C 198.315 73.386,195.552 71.808,196.151 69.722 C 196.688 67.849,198.542 67.403,200.030 68.790 L 200.476 69.206 200.988 68.842 C 202.567 67.717,199.268 65.997,196.863 66.690 M207.417 66.805 C 203.703 68.566,204.888 74.000,208.986 74.000 C 213.980 74.000,214.174 66.772,209.187 66.541 C 208.367 66.503,207.912 66.571,207.417 66.805 M217.115 66.607 C 217.052 66.670,217.000 68.361,217.000 70.365 L 217.000 74.008 219.958 73.962 L 222.917 73.917 222.970 73.267 C 223.042 72.387,222.917 72.339,220.542 72.336 L 218.500 72.333 218.500 71.583 L 218.500 70.833 220.426 70.833 L 222.352 70.833 222.301 70.125 L 222.250 69.417 220.375 69.370 L 218.500 69.322 218.500 68.750 L 218.500 68.177 220.625 68.130 L 222.750 68.083 222.750 67.333 L 222.750 66.583 219.990 66.538 C 218.472 66.513,217.178 66.544,217.115 66.607 M228.559 66.682 C 227.745 66.918,227.000 67.872,227.000 68.678 C 227.000 69.995,227.719 70.557,229.783 70.852 C 231.688 71.124,232.316 71.643,231.463 72.241 C 230.868 72.657,229.376 72.579,228.403 72.080 L 227.583 71.659 227.132 72.190 C 226.601 72.815,226.618 72.860,227.614 73.444 C 229.884 74.774,233.356 73.783,233.401 71.792 C 233.432 70.387,232.529 69.700,230.184 69.343 C 228.753 69.126,228.667 69.087,228.667 68.663 C 228.667 67.905,230.504 67.788,231.801 68.464 L 232.486 68.821 232.901 68.289 C 233.801 67.140,230.805 66.031,228.559 66.682 M240.948 66.607 C 240.885 66.670,240.833 68.361,240.833 70.365 L 240.833 74.008 243.792 73.962 L 246.750 73.917 246.803 73.267 C 246.875 72.390,246.746 72.339,244.458 72.336 L 242.500 72.333 242.500 71.583 L 242.500 70.833 244.343 70.833 L 246.186 70.833 246.135 70.125 L 246.083 69.417 244.292 69.369 L 242.500 69.322 242.500 68.749 L 242.500 68.177 244.542 68.130 L 246.583 68.083 246.583 67.333 L 246.583 66.583 243.823 66.538 C 242.305 66.513,241.012 66.544,240.948 66.607 M251.111 66.611 C 251.050 66.672,251.000 68.360,251.000 70.361 L 251.000 74.000 251.745 74.000 L 252.491 74.000 252.537 71.636 L 252.583 69.271 253.506 71.594 L 254.430 73.917 255.050 73.968 C 255.751 74.027,255.706 74.099,257.015 70.833 L 257.649 69.250 257.658 71.634 L 257.667 74.018 258.458 73.967 L 259.250 73.917 259.250 70.250 L 259.250 66.583 258.303 66.534 L 257.356 66.484 257.002 67.284 C 256.808 67.723,256.334 68.889,255.949 69.874 C 255.219 71.744,255.096 71.911,254.909 71.292 C 254.725 70.682,253.125 66.935,252.952 66.708 C 252.787 66.493,251.308 66.415,251.111 66.611 M266.400 66.734 C 266.350 66.863,266.334 67.219,266.363 67.526 L 266.417 68.083 267.621 68.132 L 268.826 68.181 268.871 71.049 L 268.917 73.917 269.708 73.967 L 270.500 74.018 270.500 71.092 L 270.500 68.167 271.750 68.167 L 273.000 68.167 273.000 67.333 L 273.000 66.500 269.745 66.500 C 267.103 66.500,266.473 66.544,266.400 66.734 M276.912 66.703 C 276.865 66.825,276.847 68.498,276.872 70.421 L 276.917 73.917 277.667 73.917 L 278.417 73.917 278.417 70.250 L 278.417 66.583 277.707 66.532 C 277.230 66.498,276.969 66.554,276.912 66.703 M284.480 66.966 C 281.763 68.385,281.922 72.405,284.746 73.688 C 286.840 74.639,290.610 72.990,289.150 71.762 C 288.535 71.244,288.473 71.239,288.198 71.679 C 287.470 72.843,285.259 72.707,284.493 71.450 C 283.068 69.112,286.375 66.674,288.112 68.783 C 288.756 69.565,289.820 68.586,289.223 67.761 C 288.320 66.513,286.069 66.135,284.480 66.966 M167.694 68.617 C 169.173 70.096,168.231 72.417,166.151 72.417 C 164.748 72.417,164.000 71.669,164.000 70.265 C 164.000 68.248,166.299 67.222,167.694 68.617 M210.615 68.726 C 211.428 69.614,211.421 70.894,210.596 71.794 C 209.239 73.275,206.833 72.313,206.833 70.290 C 206.833 68.177,209.210 67.194,210.615 68.726 M197.804 74.452 C 196.796 74.605,196.838 75.667,197.851 75.667 C 198.536 75.667,198.447 76.160,197.702 76.500 C 197.186 76.735,197.035 77.424,197.415 77.804 C 197.626 78.015,199.054 77.253,199.347 76.772 C 199.873 75.910,199.559 74.500,198.840 74.500 C 198.760 74.500,198.594 74.474,198.472 74.442 C 198.350 74.411,198.049 74.415,197.804 74.452 " stroke="none" fill="#646464" fill-rule="evenodd"></path><path id="path1" d="M340.833 48.329 L 340.833 50.991 348.708 51.037 C 357.696 51.090,357.518 51.063,358.316 52.494 C 359.688 54.954,358.585 56.730,355.103 57.666 C 342.661 61.011,342.281 61.170,341.067 63.540 C 340.057 65.513,339.583 73.757,340.403 75.111 C 340.951 76.016,340.734 76.000,352.091 76.000 L 362.667 76.000 362.667 73.333 L 362.667 70.667 353.670 70.667 L 344.673 70.667 344.566 70.240 C 344.427 69.688,344.645 67.190,344.869 66.753 C 345.476 65.571,345.218 65.674,352.466 63.736 C 358.662 62.080,359.826 61.642,361.067 60.497 C 364.059 57.740,364.035 50.686,361.024 47.675 C 359.144 45.795,358.353 45.667,348.636 45.667 L 340.833 45.667 340.833 48.329 M211.516 46.353 C 208.291 47.628,207.350 51.966,209.772 54.398 C 213.138 57.779,218.770 55.320,218.464 50.603 C 218.246 47.247,214.717 45.088,211.516 46.353 M321.810 46.251 C 318.497 47.314,317.454 52.014,319.959 54.593 C 321.435 56.113,323.926 56.366,326.020 55.210 C 326.078 55.179,326.164 55.306,326.213 55.493 C 326.286 55.773,326.437 55.833,327.068 55.833 L 327.833 55.833 327.833 53.167 L 327.833 50.500 326.833 50.500 L 325.833 50.500 325.833 51.820 L 325.833 53.139 325.208 53.527 C 323.220 54.760,320.667 53.330,320.667 50.983 C 320.667 48.217,323.866 47.016,325.925 49.009 L 326.433 49.501 327.133 48.986 C 327.994 48.353,327.994 48.327,327.150 47.483 C 325.862 46.195,323.607 45.675,321.810 46.251 M113.539 50.958 L 113.583 55.750 114.583 55.750 L 115.583 55.750 115.534 52.506 C 115.507 50.722,115.527 49.305,115.580 49.358 C 115.633 49.410,116.202 50.195,116.845 51.102 C 117.488 52.008,118.555 53.441,119.216 54.285 L 120.417 55.819 121.375 55.826 L 122.333 55.833 122.333 51.000 L 122.333 46.167 121.337 46.167 L 120.341 46.167 120.295 49.351 L 120.250 52.536 119.260 51.143 C 118.715 50.377,117.632 48.944,116.854 47.958 L 115.439 46.167 114.467 46.167 L 113.495 46.167 113.539 50.958 M137.000 51.000 L 137.000 55.833 140.917 55.833 L 144.833 55.833 144.833 54.833 L 144.833 53.833 142.000 53.833 L 139.167 53.833 139.167 52.833 L 139.167 51.833 141.583 51.833 L 144.000 51.833 144.000 50.833 L 144.000 49.833 141.583 49.833 L 139.167 49.833 139.167 49.004 L 139.167 48.175 141.875 48.129 L 144.583 48.083 144.633 47.125 L 144.683 46.167 140.842 46.167 L 137.000 46.167 137.000 51.000 M158.533 47.125 L 158.583 48.083 160.205 48.131 L 161.827 48.179 161.872 51.964 L 161.917 55.750 162.958 55.800 L 164.000 55.849 164.000 52.014 L 164.000 48.179 165.625 48.131 L 167.250 48.083 167.300 47.125 L 167.350 46.167 162.917 46.167 L 158.483 46.167 158.533 47.125 M180.846 46.451 C 180.852 46.615,181.546 48.775,182.387 51.250 L 183.917 55.750 185.067 55.750 L 186.217 55.750 186.779 53.583 C 187.089 52.392,187.430 51.023,187.539 50.542 C 187.808 49.343,187.870 49.409,188.394 51.458 C 188.646 52.444,189.006 53.831,189.194 54.542 L 189.537 55.833 190.679 55.833 L 191.822 55.833 193.327 51.194 C 195.128 45.648,195.081 46.167,193.780 46.167 L 192.728 46.167 191.854 49.458 C 191.374 51.269,190.938 52.862,190.887 53.000 C 190.835 53.137,190.533 52.275,190.216 51.083 C 189.899 49.892,189.469 48.317,189.261 47.583 L 188.882 46.250 187.866 46.201 L 186.850 46.151 186.693 46.784 C 185.603 51.155,185.071 53.127,185.001 53.059 C 184.955 53.013,184.500 51.463,183.990 49.613 L 183.063 46.250 181.948 46.201 C 180.965 46.157,180.835 46.187,180.846 46.451 M232.833 51.000 L 232.833 55.833 233.833 55.833 L 234.833 55.833 234.833 54.500 L 234.833 53.167 236.217 53.167 L 237.600 53.167 238.250 54.500 L 238.900 55.833 239.922 55.833 C 241.271 55.833,241.265 55.856,240.371 54.166 L 239.595 52.700 240.134 52.197 C 241.628 50.802,241.490 48.060,239.869 46.945 C 238.847 46.242,238.433 46.167,235.572 46.167 L 232.833 46.167 232.833 51.000 M255.706 50.958 L 255.750 55.750 256.750 55.750 L 257.750 55.750 257.798 54.093 C 257.846 52.448,257.947 52.129,258.520 51.823 C 258.771 51.688,259.079 51.987,260.499 53.748 L 262.180 55.833 263.507 55.833 C 265.165 55.833,265.237 56.050,262.563 53.000 L 260.298 50.417 262.399 48.415 C 264.889 46.043,264.849 46.167,263.128 46.167 L 261.755 46.167 259.794 48.122 L 257.833 50.078 257.833 48.122 L 257.833 46.167 256.747 46.167 L 255.662 46.167 255.706 50.958 M278.706 50.958 L 278.750 55.750 279.792 55.800 L 280.833 55.849 280.833 51.008 L 280.833 46.167 279.747 46.167 L 278.662 46.167 278.706 50.958 M295.500 51.008 L 295.500 55.850 296.458 55.800 L 297.417 55.750 297.399 52.462 L 297.381 49.173 298.464 50.712 C 299.060 51.558,300.182 53.060,300.957 54.049 L 302.367 55.849 303.309 55.799 L 304.250 55.750 304.294 50.958 L 304.338 46.167 303.227 46.167 L 302.115 46.167 302.215 49.441 C 302.270 51.242,302.256 52.648,302.183 52.566 C 302.110 52.484,301.684 51.892,301.236 51.250 C 300.424 50.087,300.069 49.612,298.333 47.370 L 297.417 46.185 296.458 46.176 L 295.500 46.167 295.500 51.008 M1.250 46.977 C -0.894 48.301,-0.069 51.500,2.417 51.500 C 3.061 51.500,3.807 51.183,4.158 50.761 C 4.350 50.530,5.467 50.500,13.999 50.500 L 23.623 50.500 23.822 51.542 C 26.923 67.816,39.600 81.649,55.833 86.473 C 70.062 90.701,86.547 87.477,97.530 78.317 C 98.137 77.811,98.451 77.667,98.947 77.666 C 101.423 77.664,102.215 74.240,99.997 73.125 C 98.505 72.376,96.503 73.450,96.501 75.000 C 96.500 75.281,96.297 75.579,95.875 75.916 C 71.036 95.759,34.199 83.002,26.939 52.042 L 26.539 50.333 30.396 50.333 L 34.253 50.333 34.639 51.791 C 38.117 64.921,48.857 74.665,62.917 77.446 C 64.830 77.825,72.353 77.879,74.333 77.529 C 80.186 76.492,85.676 74.211,89.917 71.052 C 91.829 69.627,94.359 67.282,94.286 67.002 C 94.247 66.855,92.505 64.321,90.414 61.370 L 86.612 56.004 86.031 56.710 C 75.612 69.380,55.736 66.922,48.580 52.079 L 47.855 50.574 48.115 49.783 C 48.787 47.743,46.561 45.925,44.667 46.967 C 43.120 47.817,43.026 50.239,44.505 51.113 C 44.886 51.338,45.257 51.912,45.992 53.415 C 53.279 68.314,72.397 72.517,84.948 61.979 C 85.699 61.349,86.347 60.833,86.388 60.833 C 86.490 60.833,90.305 66.233,90.427 66.549 C 90.636 67.095,86.576 69.990,83.385 71.571 C 64.038 81.155,41.054 69.735,36.829 48.439 L 36.635 47.461 20.502 47.522 C 5.807 47.578,4.341 47.559,4.059 47.313 C 3.234 46.592,2.094 46.455,1.250 46.977 M214.517 48.189 C 215.718 48.591,216.389 49.651,216.360 51.101 C 216.298 54.199,212.095 55.079,210.816 52.263 C 209.683 49.769,211.910 47.318,214.517 48.189 M238.612 48.566 C 238.983 48.885,239.076 49.105,239.076 49.667 C 239.076 50.856,238.540 51.167,236.491 51.167 L 234.833 51.167 234.833 49.667 L 234.833 48.167 236.491 48.167 C 237.999 48.167,238.190 48.203,238.612 48.566 M382.771 61.047 C 382.581 61.186,382.460 61.536,382.425 62.044 C 382.325 63.533,380.654 65.498,378.664 66.467 C 375.678 67.921,372.192 67.332,369.835 64.975 L 368.874 64.014 367.371 66.158 L 365.868 68.301 366.392 68.797 C 373.058 75.096,384.033 72.575,387.273 64.000 L 387.808 62.583 388.904 62.534 C 390.222 62.475,390.229 62.496,389.532 64.465 C 386.236 73.778,374.965 77.509,366.813 71.985 C 366.298 71.636,365.719 71.084,365.527 70.758 C 364.934 69.753,363.500 70.062,363.500 71.196 C 363.500 71.617,363.950 72.167,364.295 72.167 C 364.397 72.167,365.141 72.604,365.948 73.139 C 373.313 78.017,383.028 76.517,388.316 69.687 C 389.778 67.799,391.493 64.128,391.498 62.875 L 391.500 62.500 394.823 62.500 C 396.859 62.500,398.187 62.565,398.250 62.667 C 398.425 62.950,399.428 62.856,399.724 62.529 C 400.412 61.769,399.780 60.681,398.798 60.936 C 398.497 61.014,395.625 61.065,392.417 61.050 L 386.583 61.021 386.294 62.219 C 384.414 70.006,374.286 73.583,368.366 68.551 L 367.816 68.083 368.417 67.229 L 369.018 66.375 370.081 67.088 C 374.696 70.183,380.978 68.614,383.450 63.750 C 383.683 63.292,384.014 62.782,384.187 62.619 C 385.132 61.719,383.830 60.273,382.771 61.047 " stroke="none" fill="#fc6404" fill-rule="evenodd"></path><path id="path2" d="M322.812 34.546 C 322.884 34.618,324.062 34.655,325.430 34.629 L 327.917 34.582 325.300 34.499 C 323.860 34.454,322.741 34.475,322.812 34.546 M128.208 34.625 C 130.019 34.652,132.981 34.652,134.792 34.625 C 136.602 34.598,135.121 34.576,131.500 34.576 C 127.879 34.576,126.398 34.598,128.208 34.625 M153.533 34.624 C 154.331 34.654,155.681 34.655,156.533 34.624 C 157.386 34.594,156.733 34.569,155.083 34.569 C 153.433 34.569,152.736 34.593,153.533 34.624 M173.965 34.624 C 174.541 34.656,175.441 34.656,175.965 34.623 C 176.488 34.590,176.017 34.563,174.917 34.564 C 173.817 34.564,173.388 34.591,173.965 34.624 M202.465 34.624 C 203.041 34.656,203.941 34.656,204.465 34.623 C 204.988 34.590,204.517 34.563,203.417 34.564 C 202.317 34.564,201.888 34.591,202.465 34.624 M235.220 34.625 C 238.046 34.651,242.621 34.651,245.387 34.625 C 248.153 34.599,245.842 34.578,240.250 34.578 C 234.658 34.578,232.395 34.599,235.220 34.625 M268.947 34.625 C 270.706 34.652,273.631 34.652,275.447 34.625 C 277.264 34.598,275.825 34.576,272.250 34.576 C 268.675 34.576,267.189 34.598,268.947 34.625 M288.549 34.624 C 289.171 34.656,290.146 34.656,290.715 34.623 C 291.284 34.591,290.775 34.564,289.583 34.565 C 288.392 34.565,287.926 34.592,288.549 34.624 M297.625 34.624 C 298.290 34.655,299.377 34.655,300.042 34.624 C 300.706 34.592,300.162 34.566,298.833 34.566 C 297.504 34.566,296.960 34.592,297.625 34.624 " stroke="none" fill="#24548c" fill-rule="evenodd"></path><path id="path3" d="M65.826 0.055 C 65.784 0.092,65.095 0.169,64.295 0.226 C 56.463 0.786,47.050 4.574,40.417 9.836 C 36.305 13.098,32.418 17.436,29.885 21.592 C 28.951 23.123,28.238 24.412,27.687 25.560 C 27.085 26.815,26.901 27.224,26.269 28.708 C 25.374 30.812,24.204 34.717,23.835 36.837 L 23.646 37.923 19.448 37.864 C 15.699 37.812,15.214 37.773,14.917 37.507 C 12.945 35.741,9.876 37.999,11.081 40.328 C 11.796 41.712,14.045 42.067,14.977 40.945 C 15.152 40.734,16.625 40.713,25.923 40.789 C 34.987 40.863,36.669 40.841,36.679 40.647 C 36.728 39.767,37.941 35.372,38.490 34.083 C 39.037 32.801,39.289 32.252,39.910 30.992 C 40.508 29.775,42.357 26.758,42.662 26.500 C 42.716 26.454,43.243 25.828,43.834 25.108 C 45.240 23.392,47.096 21.586,48.750 20.323 C 49.483 19.763,50.108 19.236,50.139 19.152 C 50.169 19.069,50.250 19.000,50.318 19.000 C 50.386 19.000,51.298 18.490,52.346 17.866 C 58.636 14.118,67.658 12.412,74.083 13.754 C 74.267 13.792,74.679 13.861,75.000 13.907 C 75.632 13.998,77.043 14.354,78.500 14.791 C 79.004 14.943,79.454 15.077,79.500 15.089 C 79.546 15.102,79.733 15.169,79.917 15.239 C 80.100 15.308,80.662 15.519,81.167 15.708 C 83.690 16.651,87.198 18.754,89.620 20.777 L 90.657 21.643 89.912 22.655 C 89.502 23.212,89.167 23.739,89.167 23.826 C 89.167 23.912,89.066 24.043,88.944 24.117 C 88.821 24.190,88.319 24.850,87.828 25.583 C 87.337 26.317,86.813 27.079,86.663 27.277 L 86.391 27.638 85.904 27.188 C 73.285 15.534,53.184 19.653,45.750 35.417 C 45.225 36.530,44.908 36.994,44.520 37.218 C 43.033 38.078,43.118 40.529,44.664 41.356 C 46.613 42.398,48.806 40.548,48.075 38.478 C 47.824 37.766,47.873 37.541,48.576 36.167 C 51.803 29.863,56.774 25.851,63.644 24.006 C 68.120 22.805,74.372 23.498,78.667 25.671 C 79.862 26.276,81.299 27.118,81.500 27.330 C 81.546 27.379,81.883 27.640,82.250 27.911 C 83.252 28.652,84.252 29.609,85.505 31.023 L 86.633 32.297 87.437 31.107 C 87.880 30.452,88.287 29.879,88.342 29.833 C 88.397 29.787,89.017 28.925,89.720 27.917 C 90.423 26.908,91.056 26.008,91.128 25.917 C 91.602 25.313,93.823 22.157,94.071 21.735 L 94.374 21.220 93.894 20.735 C 93.629 20.468,92.852 19.762,92.165 19.167 C 91.478 18.571,90.879 18.045,90.833 17.999 C 90.787 17.953,90.450 17.690,90.084 17.416 C 86.152 14.470,80.571 11.983,76.083 11.178 C 75.533 11.079,74.896 10.958,74.667 10.909 C 72.949 10.541,65.410 10.416,63.917 10.731 C 63.642 10.789,63.259 10.872,63.066 10.915 C 62.874 10.959,62.424 11.039,62.066 11.093 C 61.709 11.148,60.854 11.343,60.167 11.528 C 59.479 11.712,58.654 11.929,58.333 12.009 C 55.022 12.835,48.979 16.159,45.936 18.828 C 43.806 20.697,40.169 24.667,40.167 25.125 C 40.167 25.240,40.108 25.333,40.035 25.333 C 39.898 25.333,38.500 27.383,38.500 27.584 C 38.500 27.647,38.360 27.898,38.188 28.141 C 37.029 29.786,34.818 35.193,34.412 37.375 L 34.296 38.000 30.416 38.000 L 26.535 38.000 26.690 37.292 C 29.209 25.762,35.803 16.104,45.417 9.863 C 46.150 9.387,46.825 8.939,46.917 8.867 C 47.008 8.795,47.721 8.409,48.500 8.009 C 49.279 7.609,50.029 7.220,50.167 7.144 C 52.705 5.737,58.871 3.829,62.417 3.352 C 66.037 2.865,71.251 2.724,73.083 3.063 C 73.267 3.097,73.942 3.185,74.583 3.259 C 75.225 3.333,75.787 3.403,75.833 3.415 C 75.879 3.427,76.254 3.496,76.667 3.568 C 79.957 4.144,85.155 5.880,88.083 7.379 C 89.151 7.926,93.027 10.179,93.167 10.333 C 93.212 10.384,93.850 10.873,94.583 11.419 C 96.452 12.810,96.500 12.858,96.501 13.329 C 96.503 14.883,98.487 15.948,99.985 15.200 C 102.241 14.075,101.366 10.667,98.822 10.667 C 98.436 10.667,97.990 10.417,97.108 9.708 C 94.304 7.454,89.279 4.506,86.667 3.583 C 86.621 3.566,86.304 3.429,85.964 3.277 C 85.623 3.124,85.291 3.000,85.227 3.000 C 85.162 3.000,84.630 2.808,84.044 2.574 C 83.018 2.163,81.824 1.819,79.167 1.167 C 78.081 0.901,76.724 0.655,74.083 0.244 C 73.306 0.123,65.939 -0.046,65.826 0.055 M174.131 10.692 C 173.883 10.783,173.508 11.133,173.298 11.470 L 172.917 12.083 172.869 23.333 L 172.822 34.583 174.826 34.532 L 176.830 34.480 176.874 25.900 L 176.917 17.320 185.592 26.004 C 195.133 35.554,194.870 35.337,196.249 34.761 C 197.559 34.214,197.499 34.832,197.499 22.042 L 197.500 10.667 195.501 10.667 L 193.503 10.667 193.460 19.243 L 193.417 27.820 184.917 19.390 C 175.620 10.171,175.600 10.155,174.131 10.692 M202.549 10.776 C 201.476 11.295,201.500 11.008,201.500 23.329 L 201.500 34.480 203.500 34.532 L 205.501 34.583 205.500 25.969 L 205.500 17.354 213.958 25.856 C 218.610 30.533,222.633 34.472,222.896 34.611 C 224.133 35.263,225.947 34.522,226.021 33.336 C 226.032 33.151,226.060 32.925,226.083 32.833 C 226.106 32.742,226.134 28.504,226.146 23.417 L 226.167 14.167 238.333 14.167 L 250.500 14.167 250.500 12.333 L 250.500 10.500 236.958 10.502 C 229.510 10.503,223.136 10.550,222.793 10.607 L 222.170 10.710 222.126 19.348 L 222.083 27.986 213.580 19.519 C 208.903 14.863,204.890 10.952,204.663 10.829 C 204.085 10.517,203.133 10.493,202.549 10.776 M311.133 10.758 C 310.886 10.892,310.425 11.395,310.109 11.876 C 309.515 12.781,302.215 24.933,301.632 25.987 C 301.451 26.315,301.089 26.921,300.828 27.333 C 300.566 27.746,299.494 29.508,298.445 31.250 L 296.537 34.417 298.894 34.500 L 301.250 34.583 302.461 32.500 C 303.127 31.354,303.742 30.304,303.827 30.167 C 304.786 28.625,305.333 27.660,305.333 27.513 C 305.333 27.414,305.391 27.333,305.462 27.333 C 305.532 27.333,305.776 26.977,306.003 26.542 C 306.231 26.106,306.458 25.712,306.508 25.667 C 306.690 25.499,311.167 17.799,311.167 17.652 C 311.167 17.568,311.233 17.500,311.313 17.500 C 311.394 17.500,311.553 17.275,311.667 17.000 C 311.924 16.379,312.115 16.368,312.378 16.958 C 312.585 17.423,315.052 21.610,315.299 21.917 C 315.373 22.008,315.484 22.196,315.547 22.333 C 315.609 22.471,315.847 22.883,316.076 23.250 C 316.305 23.617,316.682 24.254,316.914 24.667 C 317.425 25.574,317.721 26.055,317.837 26.167 C 317.884 26.212,318.015 26.438,318.127 26.667 C 318.239 26.896,318.465 27.308,318.628 27.583 C 318.791 27.858,319.590 29.208,320.404 30.583 C 321.218 31.958,322.101 33.402,322.367 33.792 L 322.849 34.500 325.334 34.500 L 327.819 34.500 327.204 33.458 C 326.865 32.885,326.531 32.392,326.461 32.361 C 326.391 32.331,326.333 32.237,326.333 32.154 C 326.333 32.027,324.807 29.447,323.797 27.865 C 323.639 27.619,323.387 27.197,323.236 26.929 C 322.565 25.737,314.893 12.998,314.288 12.072 C 313.299 10.557,312.283 10.134,311.133 10.758 M122.083 11.170 C 119.151 11.926,117.551 13.005,115.540 15.583 C 115.141 16.096,114.158 18.213,114.007 18.887 C 113.624 20.592,113.584 20.981,113.606 22.750 C 113.687 29.409,118.454 34.538,124.583 34.563 C 124.767 34.563,127.860 34.550,131.458 34.532 L 138.000 34.500 138.000 32.500 L 138.000 30.500 131.542 30.497 C 127.990 30.495,124.581 30.421,123.967 30.332 C 116.324 29.227,115.491 17.597,122.893 15.347 C 123.972 15.019,124.419 15.000,131.018 15.000 L 138.000 15.000 138.000 12.914 L 138.000 10.827 130.625 10.848 C 124.099 10.866,123.116 10.903,122.083 11.170 M149.000 11.227 C 146.286 11.940,143.407 13.962,142.489 15.801 C 142.365 16.048,142.156 16.381,142.023 16.542 C 141.890 16.702,141.850 16.834,141.933 16.836 C 142.015 16.837,142.008 16.894,141.917 16.961 C 141.005 17.631,140.407 22.383,140.905 25.000 C 141.841 29.920,145.414 33.623,150.000 34.424 C 151.370 34.663,159.888 34.544,160.932 34.270 C 166.452 32.825,169.945 27.826,169.609 21.847 C 169.315 16.603,166.617 12.960,161.836 11.352 C 159.970 10.725,151.236 10.640,149.000 11.227 M263.500 11.003 C 263.179 11.076,262.757 11.174,262.562 11.221 C 256.525 12.679,253.246 18.578,254.578 25.583 C 254.708 26.262,255.337 27.988,255.643 28.500 C 258.012 32.470,261.298 34.561,265.167 34.561 C 265.487 34.561,268.656 34.547,272.208 34.530 L 278.667 34.500 278.667 32.511 L 278.667 30.522 271.458 30.458 C 263.581 30.387,263.650 30.395,262.000 29.361 C 260.509 28.425,259.220 26.864,258.985 25.706 C 258.971 25.639,258.887 25.396,258.799 25.167 C 257.811 22.618,258.810 18.647,260.890 16.854 C 263.047 14.994,262.952 15.005,276.292 15.002 L 287.500 15.000 287.500 24.750 L 287.500 34.500 289.583 34.500 L 291.667 34.500 291.667 24.750 L 291.667 15.000 296.167 15.000 L 300.667 15.000 300.667 12.917 L 300.667 10.833 282.375 10.852 C 272.315 10.863,263.821 10.931,263.500 11.003 M159.798 15.229 C 166.858 16.876,167.525 27.172,160.750 29.919 C 159.365 30.480,153.793 30.727,151.173 30.344 C 143.253 29.186,142.542 17.593,150.247 15.253 C 151.285 14.938,158.473 14.920,159.798 15.229 M230.167 22.499 L 230.167 24.333 240.339 24.333 L 250.511 24.333 250.464 22.542 L 250.417 20.750 240.292 20.707 L 230.167 20.664 230.167 22.499 M230.167 32.746 L 230.167 34.495 240.339 34.539 L 250.510 34.583 250.464 32.833 L 250.417 31.083 240.292 31.040 L 230.167 30.997 230.167 32.746 M373.000 44.287 C 370.310 44.698,367.350 45.942,365.068 47.621 C 364.784 47.829,364.429 48.000,364.280 48.000 C 363.828 48.000,363.418 48.784,363.600 49.301 C 363.945 50.283,364.976 50.311,365.531 49.354 C 366.175 48.243,369.731 46.342,371.930 45.932 C 374.299 45.491,375.979 45.490,378.554 45.929 C 380.137 46.199,383.032 47.550,384.407 48.662 C 386.884 50.665,388.491 52.878,389.527 55.713 C 390.232 57.645,390.224 57.667,388.870 57.667 L 387.739 57.667 387.511 56.875 C 387.211 55.832,386.700 54.703,386.249 54.083 C 386.049 53.808,385.855 53.499,385.818 53.395 C 385.666 52.974,384.219 51.438,383.266 50.687 C 378.444 46.888,371.774 46.967,367.041 50.880 C 365.820 51.889,365.763 52.023,366.353 52.500 C 366.410 52.546,366.698 52.977,366.992 53.458 C 367.287 53.940,367.597 54.333,367.681 54.333 C 367.765 54.333,367.833 54.406,367.833 54.495 C 367.833 54.584,368.074 54.999,368.368 55.416 L 368.904 56.175 369.801 55.249 C 372.392 52.574,376.431 52.165,379.585 54.259 C 381.136 55.288,382.500 57.147,382.500 58.230 C 382.500 58.994,382.780 59.333,383.411 59.333 C 384.386 59.333,384.930 58.174,384.208 57.634 C 384.048 57.515,383.735 57.042,383.513 56.583 C 383.292 56.125,383.066 55.712,383.012 55.667 C 382.959 55.621,382.694 55.283,382.423 54.917 C 382.153 54.550,381.816 54.164,381.674 54.059 C 381.533 53.953,381.192 53.670,380.917 53.430 C 379.166 51.899,375.736 51.145,373.184 51.732 C 371.961 52.013,370.001 52.922,370.000 53.208 C 370.000 53.277,369.912 53.333,369.805 53.333 C 369.697 53.333,369.483 53.448,369.328 53.588 C 369.072 53.820,369.010 53.794,368.633 53.296 C 367.799 52.197,367.781 52.079,368.378 51.627 C 373.704 47.591,381.598 49.088,384.976 54.774 C 385.775 56.119,386.500 57.981,386.500 58.689 L 386.500 59.163 390.407 59.082 C 392.907 59.031,394.352 59.062,394.417 59.168 C 394.592 59.450,395.595 59.355,395.891 59.029 C 396.547 58.304,395.971 57.237,395.021 57.416 C 393.545 57.694,391.501 57.701,391.479 57.428 C 391.468 57.284,391.445 57.110,391.428 57.042 C 391.411 56.973,391.337 56.654,391.262 56.333 C 390.912 54.832,389.563 52.099,388.466 50.667 C 387.340 49.197,383.547 46.000,382.930 46.000 C 382.890 46.000,382.372 45.776,381.781 45.502 C 379.607 44.496,375.423 43.917,373.000 44.287 M363.667 58.833 C 363.667 59.136,363.778 59.167,364.883 59.167 C 366.083 59.167,366.500 59.326,366.500 59.783 C 366.500 59.942,366.160 60.000,365.227 60.000 C 363.701 60.000,363.016 60.685,363.628 61.600 C 363.996 62.151,366.507 62.427,366.967 61.967 C 367.312 61.622,367.229 59.108,366.862 58.776 C 366.365 58.326,363.667 58.375,363.667 58.833 M367.944 58.611 C 367.883 58.672,367.833 59.497,367.833 60.444 L 367.833 62.167 368.250 62.167 C 368.664 62.167,368.667 62.156,368.667 60.667 L 368.667 59.167 369.500 59.167 C 370.721 59.167,371.000 59.507,371.000 61.000 C 371.000 62.056,371.032 62.167,371.333 62.167 C 371.920 62.167,371.829 59.319,371.228 58.845 C 370.788 58.500,368.238 58.318,367.944 58.611 M372.679 58.903 C 371.696 59.950,372.232 61.889,373.558 62.088 C 375.479 62.376,376.424 61.505,376.094 59.749 C 375.855 58.473,373.606 57.916,372.679 58.903 M376.792 58.680 C 375.800 59.258,376.570 60.447,378.046 60.617 C 378.882 60.714,379.237 60.918,379.063 61.200 C 379.017 61.274,378.422 61.333,377.740 61.333 C 376.528 61.333,376.500 61.343,376.500 61.750 C 376.500 62.332,378.860 62.393,379.469 61.827 C 380.353 61.002,379.781 60.000,378.425 60.000 C 377.854 60.000,377.469 59.914,377.339 59.757 C 376.988 59.334,377.319 59.167,378.510 59.167 C 379.556 59.167,379.667 59.135,379.667 58.833 C 379.667 58.456,377.385 58.334,376.792 58.680 M375.071 59.429 C 375.808 60.165,375.269 61.333,374.194 61.333 C 373.237 61.333,373.000 61.130,373.000 60.312 C 373.000 59.515,373.355 59.167,374.167 59.167 C 374.529 59.167,374.924 59.281,375.071 59.429 M366.500 60.917 C 366.500 61.450,364.462 61.576,364.262 61.055 C 364.108 60.654,364.452 60.505,365.542 60.503 C 366.453 60.500,366.500 60.520,366.500 60.917 M175.735 69.583 C 175.735 71.142,175.760 71.802,175.791 71.050 C 175.821 70.298,175.821 69.023,175.791 68.217 C 175.760 67.410,175.735 68.025,175.735 69.583 " stroke="none" fill="#1c5488" fill-rule="evenodd"></path><path id="path4" d="" stroke="none" fill="#245484" fill-rule="evenodd"></path></g></svg>